<svg xmlns="http://www.w3.org/2000/svg" xmlns:xlink="http://www.w3.org/1999/xlink" width="1000" zoomAndPan="magnify" viewBox="0 0 750 749.999995" height="1000" preserveAspectRatio="xMidYMid meet" version="1.0"><defs><filter x="0%" y="0%" width="100%" height="100%" id="9409c635cb"><feColorMatrix values="0 0 0 0 1 0 0 0 0 1 0 0 0 0 1 0 0 0 1 0" color-interpolation-filters="sRGB"/></filter><clipPath id="839b137a8c"><path d="M 0.554688 17.046875 L 749.445312 17.046875 L 749.445312 732.945312 L 0.554688 732.945312 Z M 0.554688 17.046875 " clip-rule="nonzero"/></clipPath><mask id="0ee2250e5a"><g filter="url(#9409c635cb)"><rect x="-75" width="900" fill="#000000" y="-74.999999" height="899.999994" fill-opacity="0.25"/></g></mask><clipPath id="4b0e715d17"><path d="M 0.554688 396 L 12 396 L 12 409 L 0.554688 409 Z M 0.554688 396 " clip-rule="nonzero"/></clipPath><clipPath id="2495e2377e"><path d="M 384 0.046875 L 407 0.046875 L 407 23 L 384 23 Z M 384 0.046875 " clip-rule="nonzero"/></clipPath><clipPath id="814eaa3cac"><path d="M 738 538 L 749.445312 538 L 749.445312 551 L 738 551 Z M 738 538 " clip-rule="nonzero"/></clipPath><clipPath id="d85fbfe8d3"><path d="M 277 704 L 289 704 L 289 715.945312 L 277 715.945312 Z M 277 704 " clip-rule="nonzero"/></clipPath><clipPath id="e5b372c2cc"><rect x="0" width="750" y="0" height="716"/></clipPath></defs><g clip-path="url(#839b137a8c)"><g mask="url(#0ee2250e5a)"><g transform="matrix(1, 0, 0, 1, 0, 17)"><g clip-path="url(#e5b372c2cc)"><path fill="#ff914d" d="M 597.535156 134.140625 C 602.054688 142.132812 612.722656 147.933594 621.871094 145.335938 C 629.128906 143.277344 634.53125 136.660156 636.222656 129.457031 C 637.796875 122.777344 635.859375 116.078125 630.394531 113.003906 C 628.632812 105.140625 616.929688 104.621094 609.367188 107.089844 C 598.40625 110.667969 591.523438 123.503906 597.535156 134.140625 Z M 597.535156 134.140625 " fill-opacity="1" fill-rule="nonzero"/><path fill="#ff914d" d="M 4.277344 331.621094 C 3.421875 337.597656 6.683594 343.753906 11.246094 347.449219 C 16.097656 351.386719 22.386719 351.285156 26.617188 347.4375 C 31.476562 345.804688 34.464844 341.105469 33.394531 335.214844 C 32.214844 328.71875 26.855469 322.53125 20.324219 321.09375 C 13.042969 319.492188 5.363281 324.078125 4.277344 331.621094 Z M 4.277344 331.621094 " fill-opacity="1" fill-rule="nonzero"/><path fill="#ff914d" d="M 479.816406 208.828125 C 476.84375 217.175781 483.105469 224.824219 490.347656 228.101562 C 497.21875 231.574219 504.785156 229.070312 507.617188 221.535156 C 510.105469 214.90625 507.824219 206.832031 501.566406 203.183594 C 494.355469 198.980469 482.941406 200.042969 479.816406 208.828125 Z M 479.816406 208.828125 " fill-opacity="1" fill-rule="nonzero"/><path fill="#ff914d" d="M 490.050781 146.621094 C 494.929688 149.484375 500.976562 148.867188 504.605469 144.34375 C 508.304688 139.730469 505.910156 133.40625 501.171875 130.667969 C 496.417969 127.917969 490.09375 128.78125 486.726562 133.296875 C 483.324219 137.867188 485.148438 144.015625 490.050781 146.621094 Z M 490.050781 146.621094 " fill-opacity="1" fill-rule="nonzero"/><path fill="#ff914d" d="M 565.667969 185.882812 C 560.308594 185.394531 555.558594 189.203125 555.1875 194.632812 C 554.855469 199.515625 557.824219 204.066406 562.402344 205.722656 C 563.410156 206.226562 564.5625 206.410156 565.726562 206.066406 C 570.34375 204.710938 574.082031 200.914062 574.441406 195.9375 C 574.824219 190.613281 570.945312 186.363281 565.667969 185.882812 Z M 565.667969 185.882812 " fill-opacity="1" fill-rule="nonzero"/><path fill="#ff914d" d="M 474.28125 68.355469 C 468.917969 67.867188 464.171875 71.675781 463.800781 77.109375 C 463.464844 81.988281 466.433594 86.539062 471.015625 88.195312 C 472.023438 88.699219 473.171875 88.882812 474.335938 88.539062 C 478.957031 87.183594 482.695312 83.390625 483.054688 78.410156 C 483.4375 73.085938 479.558594 68.835938 474.28125 68.355469 Z M 474.28125 68.355469 " fill-opacity="1" fill-rule="nonzero"/><path fill="#ff914d" d="M 543.148438 113.859375 C 549.082031 117.800781 555.226562 108.601562 549.285156 104.65625 C 543.351562 100.71875 537.207031 109.914062 543.148438 113.859375 Z M 543.148438 113.859375 " fill-opacity="1" fill-rule="nonzero"/><path fill="#ff914d" d="M 537.605469 269.726562 C 531.671875 265.785156 525.53125 274.984375 531.472656 278.929688 C 537.40625 282.867188 543.546875 273.667969 537.605469 269.726562 Z M 537.605469 269.726562 " fill-opacity="1" fill-rule="nonzero"/><path fill="#ff914d" d="M 279.726562 55.960938 C 273.792969 52.019531 267.652344 61.21875 273.59375 65.164062 C 279.527344 69.101562 285.667969 59.90625 279.726562 55.960938 Z M 279.726562 55.960938 " fill-opacity="1" fill-rule="nonzero"/><path fill="#ff914d" d="M 157.839844 175.375 C 151.90625 171.433594 145.765625 180.632812 151.707031 184.578125 C 157.640625 188.519531 163.78125 179.320312 157.839844 175.375 Z M 157.839844 175.375 " fill-opacity="1" fill-rule="nonzero"/><path fill="#ff914d" d="M 246.542969 115.351562 C 240.613281 111.414062 234.472656 120.609375 240.414062 124.554688 C 246.347656 128.496094 252.488281 119.296875 246.542969 115.351562 Z M 246.542969 115.351562 " fill-opacity="1" fill-rule="nonzero"/><path fill="#ff914d" d="M 417.15625 234.253906 C 423.085938 238.191406 429.226562 228.996094 423.285156 225.046875 C 417.351562 221.109375 411.210938 230.308594 417.15625 234.253906 Z M 417.15625 234.253906 " fill-opacity="1" fill-rule="nonzero"/><path fill="#ff914d" d="M 582.308594 330.84375 C 580.71875 335.589844 582.625 341.03125 586.960938 343.585938 C 591.082031 346.015625 595.53125 344.875 598.351562 341.839844 C 599.597656 341.707031 600.839844 341.207031 601.964844 340.230469 C 604.246094 338.25 604.921875 334.464844 604.488281 331.601562 C 603.722656 326.59375 598.957031 323.199219 594.121094 322.835938 C 588.8125 322.433594 583.976562 325.851562 582.308594 330.84375 Z M 582.308594 330.84375 " fill-opacity="1" fill-rule="nonzero"/><path fill="#ff914d" d="M 484.824219 341.890625 C 483.234375 346.636719 485.140625 352.082031 489.476562 354.636719 C 493.597656 357.0625 498.046875 355.925781 500.867188 352.886719 C 502.117188 352.753906 503.355469 352.253906 504.480469 351.28125 C 506.761719 349.296875 507.4375 345.511719 507.003906 342.652344 C 506.242188 337.644531 501.476562 334.25 496.636719 333.886719 C 491.332031 333.484375 486.492188 336.902344 484.824219 341.890625 Z M 484.824219 341.890625 " fill-opacity="1" fill-rule="nonzero"/><path fill="#ff914d" d="M 669.871094 315.558594 C 668.109375 322.972656 671.929688 329.90625 677.992188 333.808594 C 678.242188 334.027344 678.511719 334.226562 678.816406 334.382812 C 679.238281 334.605469 679.664062 334.808594 680.097656 335.003906 C 680.113281 335.011719 680.132812 335.023438 680.148438 335.03125 C 680.167969 335.042969 680.1875 335.046875 680.207031 335.054688 C 683.535156 336.523438 687.132812 337.097656 690.59375 335.351562 C 693.667969 333.800781 695.808594 330.816406 696.75 327.554688 C 698.882812 320.175781 695.519531 311.929688 688.550781 308.546875 C 681.265625 305.015625 671.933594 306.84375 669.871094 315.558594 Z M 669.871094 315.558594 " fill-opacity="1" fill-rule="nonzero"/><path fill="#ff914d" d="M 35.988281 444.375 C 36.261719 445.132812 36.601562 445.859375 36.96875 446.574219 C 37.359375 447.335938 37.9375 448.011719 38.625 448.542969 C 38.839844 449.109375 39.144531 449.636719 39.570312 450.085938 C 40.582031 451.148438 41.925781 451.929688 43.429688 451.980469 C 47.148438 452.097656 51.328125 451.535156 53.578125 448.191406 C 55.722656 444.996094 54.5625 441.089844 52.28125 438.367188 C 50.578125 436.332031 48.378906 434.929688 46.007812 433.828125 C 43.253906 432.546875 39.753906 432.53125 37.367188 434.605469 C 35.3125 436.390625 34.816406 438.96875 35.152344 441.539062 C 35.28125 442.511719 35.664062 443.46875 35.988281 444.375 Z M 35.988281 444.375 " fill-opacity="1" fill-rule="nonzero"/><path fill="#ff914d" d="M 616.144531 221.246094 C 616.417969 222 616.757812 222.730469 617.125 223.441406 C 617.515625 224.203125 618.089844 224.882812 618.78125 225.410156 C 618.996094 225.976562 619.300781 226.507812 619.726562 226.953125 C 620.734375 228.015625 622.082031 228.800781 623.585938 228.847656 C 627.304688 228.964844 631.484375 228.402344 633.734375 225.058594 C 635.878906 221.863281 634.71875 217.960938 632.4375 215.234375 C 630.734375 213.199219 628.535156 211.796875 626.164062 210.695312 C 623.410156 209.417969 619.910156 209.402344 617.523438 211.476562 C 615.46875 213.257812 614.972656 215.835938 615.3125 218.40625 C 615.4375 219.378906 615.820312 220.335938 616.144531 221.246094 Z M 616.144531 221.246094 " fill-opacity="1" fill-rule="nonzero"/><path fill="#ff914d" d="M 181.347656 117.898438 C 181.617188 118.65625 181.957031 119.382812 182.324219 120.097656 C 182.71875 120.859375 183.289062 121.539062 183.980469 122.066406 C 184.195312 122.632812 184.5 123.160156 184.925781 123.609375 C 185.9375 124.671875 187.28125 125.457031 188.785156 125.5 C 192.503906 125.617188 196.683594 125.058594 198.933594 121.710938 C 201.078125 118.519531 199.917969 114.613281 197.636719 111.890625 C 195.933594 109.855469 193.734375 108.453125 191.363281 107.351562 C 188.609375 106.074219 185.109375 106.054688 182.722656 108.128906 C 180.667969 109.914062 180.171875 112.492188 180.511719 115.0625 C 180.636719 116.03125 181.019531 116.992188 181.347656 117.898438 Z M 181.347656 117.898438 " fill-opacity="1" fill-rule="nonzero"/><g clip-path="url(#4b0e715d17)"><path fill="#ff914d" d="M 9.109375 397.867188 C 3.175781 393.929688 -2.964844 403.128906 2.976562 407.070312 C 8.910156 411.011719 15.050781 401.8125 9.109375 397.867188 Z M 9.109375 397.867188 " fill-opacity="1" fill-rule="nonzero"/></g><path fill="#ff914d" d="M 116.640625 558.351562 C 123.652344 563.445312 132.4375 560.351562 136.570312 553.222656 C 140.871094 545.808594 139.757812 536.015625 132.425781 530.941406 C 124.96875 525.78125 114.464844 526.941406 109.703125 535.074219 C 104.746094 543.542969 108.824219 553.390625 116.640625 558.351562 Z M 116.640625 558.351562 " fill-opacity="1" fill-rule="nonzero"/><path fill="#ff914d" d="M 38.210938 199.84375 C 45.222656 204.9375 54.007812 201.84375 58.140625 194.714844 C 62.441406 187.300781 61.332031 177.511719 54 172.433594 C 46.542969 167.273438 36.035156 168.433594 31.273438 176.566406 C 26.316406 185.039062 30.394531 194.882812 38.210938 199.84375 Z M 38.210938 199.84375 " fill-opacity="1" fill-rule="nonzero"/><path fill="#ff914d" d="M 700.222656 457.777344 C 707.234375 462.871094 716.019531 459.777344 720.152344 452.648438 C 724.453125 445.230469 723.34375 435.441406 716.011719 430.367188 C 708.554688 425.207031 698.046875 426.363281 693.285156 434.5 C 688.328125 442.96875 692.410156 452.816406 700.222656 457.777344 Z M 700.222656 457.777344 " fill-opacity="1" fill-rule="nonzero"/><path fill="#ff914d" d="M 26.398438 541.707031 C 27.308594 548.296875 33.757812 552.21875 40.054688 551.277344 C 41.964844 550.992188 43.445312 549.535156 44.109375 547.785156 C 47.503906 545.773438 49.574219 542.105469 48.453125 537.8125 C 47.199219 533 42.625 529.335938 37.632812 529.214844 C 31 529.058594 25.496094 535.15625 26.398438 541.707031 Z M 26.398438 541.707031 " fill-opacity="1" fill-rule="nonzero"/><g clip-path="url(#2495e2377e)"><path fill="#ff914d" d="M 384.355469 12.539062 C 385.265625 19.128906 391.71875 23.050781 398.011719 22.109375 C 399.921875 21.824219 401.402344 20.371094 402.066406 18.617188 C 405.460938 16.605469 407.53125 12.9375 406.410156 8.640625 C 405.15625 3.832031 400.582031 0.167969 395.59375 0.046875 C 388.957031 -0.109375 383.453125 5.988281 384.355469 12.539062 Z M 384.355469 12.539062 " fill-opacity="1" fill-rule="nonzero"/></g><path fill="#ff914d" d="M 94.691406 480.332031 C 94.515625 481.207031 94.324219 482.082031 94.28125 482.972656 C 94.242188 483.867188 94.328125 484.773438 94.410156 485.65625 C 94.453125 486.097656 94.519531 486.535156 94.625 486.96875 C 95.0625 488.738281 95.722656 490.164062 96.820312 491.613281 C 96.929688 491.757812 97.050781 491.890625 97.175781 492.019531 C 97.640625 492.488281 98.144531 492.941406 98.683594 493.324219 C 99.210938 493.703125 99.851562 493.964844 100.433594 494.222656 C 100.601562 494.296875 100.769531 494.363281 100.949219 494.410156 C 103.210938 495.019531 105.351562 494.746094 107.492188 493.84375 C 108.457031 493.4375 109.347656 492.792969 110.1875 492.199219 C 110.820312 491.757812 111.402344 491.25 111.957031 490.714844 C 112.292969 490.386719 112.621094 490.046875 112.9375 489.699219 C 113.539062 489.21875 113.972656 488.625 114.246094 487.921875 C 114.625 487.289062 114.824219 486.597656 114.835938 485.84375 C 114.910156 484.5625 114.453125 482.996094 113.578125 482.007812 C 113.492188 481.757812 113.390625 481.515625 113.25 481.292969 C 112.160156 479.59375 111.042969 477.8125 109.53125 476.4375 C 108.8125 475.78125 108.046875 475.027344 107.171875 474.554688 C 105.792969 473.816406 104.925781 473.472656 103.386719 473.265625 C 101.355469 472.996094 99.3125 473.800781 97.75 475.050781 C 96.460938 476.078125 95.582031 477.640625 95.011719 479.160156 C 94.871094 479.539062 94.773438 479.933594 94.691406 480.332031 Z M 94.691406 480.332031 " fill-opacity="1" fill-rule="nonzero"/><path fill="#ff914d" d="M 180.261719 429.367188 C 180.085938 430.242188 179.894531 431.117188 179.851562 432.007812 C 179.8125 432.902344 179.898438 433.8125 179.980469 434.691406 C 180.023438 435.136719 180.089844 435.574219 180.195312 436.003906 C 180.632812 437.777344 181.292969 439.199219 182.390625 440.648438 C 182.5 440.792969 182.621094 440.929688 182.746094 441.058594 C 183.210938 441.523438 183.714844 441.980469 184.253906 442.363281 C 184.78125 442.738281 185.421875 443 186.003906 443.257812 C 186.171875 443.332031 186.335938 443.398438 186.515625 443.445312 C 188.78125 444.058594 190.921875 443.78125 193.0625 442.878906 C 194.027344 442.472656 194.917969 441.828125 195.761719 441.238281 C 196.390625 440.792969 196.972656 440.289062 197.527344 439.753906 C 197.863281 439.425781 198.191406 439.085938 198.507812 438.738281 C 199.109375 438.253906 199.542969 437.660156 199.8125 436.957031 C 200.195312 436.328125 200.394531 435.636719 200.40625 434.882812 C 200.484375 433.601562 200.023438 432.03125 199.148438 431.042969 C 199.0625 430.792969 198.960938 430.554688 198.820312 430.332031 C 197.730469 428.628906 196.613281 426.847656 195.101562 425.476562 C 194.382812 424.820312 193.617188 424.066406 192.742188 423.589844 C 191.367188 422.851562 190.496094 422.507812 188.957031 422.304688 C 186.925781 422.03125 184.882812 422.835938 183.320312 424.085938 C 182.03125 425.117188 181.152344 426.679688 180.585938 428.195312 C 180.441406 428.578125 180.339844 428.96875 180.261719 429.367188 Z M 180.261719 429.367188 " fill-opacity="1" fill-rule="nonzero"/><path fill="#ff914d" d="M 211.441406 288.570312 C 211.265625 289.441406 211.074219 290.320312 211.03125 291.210938 C 210.992188 292.105469 211.078125 293.011719 211.160156 293.894531 C 211.203125 294.335938 211.269531 294.773438 211.375 295.207031 C 211.8125 296.976562 212.472656 298.402344 213.570312 299.851562 C 213.679688 299.996094 213.800781 300.128906 213.925781 300.257812 C 214.390625 300.726562 214.894531 301.179688 215.433594 301.5625 C 215.960938 301.941406 216.601562 302.203125 217.183594 302.460938 C 217.351562 302.535156 217.519531 302.601562 217.699219 302.648438 C 219.960938 303.257812 222.101562 302.984375 224.242188 302.082031 C 225.207031 301.675781 226.097656 301.03125 226.9375 300.4375 C 227.566406 299.996094 228.152344 299.488281 228.707031 298.953125 C 229.046875 298.625 229.371094 298.285156 229.6875 297.9375 C 230.289062 297.457031 230.726562 296.859375 230.992188 296.160156 C 231.375 295.527344 231.574219 294.835938 231.585938 294.082031 C 231.660156 292.800781 231.203125 291.234375 230.328125 290.246094 C 230.242188 289.996094 230.140625 289.753906 230 289.53125 C 228.910156 287.828125 227.792969 286.050781 226.28125 284.675781 C 225.5625 284.019531 224.796875 283.265625 223.921875 282.792969 C 222.546875 282.054688 221.675781 281.710938 220.136719 281.503906 C 218.105469 281.234375 216.0625 282.039062 214.5 283.289062 C 213.207031 284.316406 212.332031 285.878906 211.761719 287.398438 C 211.621094 287.777344 211.519531 288.167969 211.441406 288.570312 Z M 211.441406 288.570312 " fill-opacity="1" fill-rule="nonzero"/><path fill="#ff914d" d="M 404.082031 96.878906 C 403.90625 97.753906 403.714844 98.628906 403.675781 99.523438 C 403.632812 100.414062 403.71875 101.324219 403.800781 102.207031 C 403.84375 102.648438 403.910156 103.085938 404.015625 103.519531 C 404.453125 105.289062 405.117188 106.714844 406.210938 108.160156 C 406.320312 108.304688 406.441406 108.441406 406.570312 108.570312 C 407.03125 109.035156 407.535156 109.492188 408.070312 109.875 C 408.601562 110.253906 409.242188 110.515625 409.824219 110.769531 C 409.992188 110.847656 410.160156 110.910156 410.339844 110.960938 C 412.601562 111.570312 414.742188 111.292969 416.882812 110.390625 C 417.84375 109.988281 418.734375 109.339844 419.578125 108.75 C 420.207031 108.304688 420.792969 107.800781 421.347656 107.265625 C 421.683594 106.9375 422.011719 106.597656 422.332031 106.25 C 422.929688 105.765625 423.363281 105.171875 423.636719 104.46875 C 424.015625 103.839844 424.210938 103.148438 424.226562 102.394531 C 424.300781 101.113281 423.839844 99.542969 422.96875 98.554688 C 422.882812 98.304688 422.78125 98.066406 422.640625 97.84375 C 421.550781 96.140625 420.429688 94.363281 418.921875 92.988281 C 418.203125 92.332031 417.4375 91.578125 416.5625 91.105469 C 415.183594 90.363281 414.316406 90.019531 412.777344 89.816406 C 410.742188 89.542969 408.703125 90.347656 407.140625 91.597656 C 405.847656 92.628906 404.972656 94.191406 404.402344 95.707031 C 404.261719 96.089844 404.164062 96.480469 404.082031 96.878906 Z M 404.082031 96.878906 " fill-opacity="1" fill-rule="nonzero"/><path fill="#ff914d" d="M 89.324219 387.304688 C 91.300781 388.839844 93.511719 389.433594 95.839844 389.554688 C 97.4375 390.691406 99.578125 390.773438 101.570312 390.078125 C 107.59375 387.976562 110.9375 381.160156 109.464844 375.054688 C 107.878906 368.484375 101.597656 364.105469 94.832031 365.617188 C 88.410156 367.050781 84.402344 373.230469 85.09375 379.640625 C 85.421875 382.660156 86.917969 385.433594 89.324219 387.304688 Z M 89.324219 387.304688 " fill-opacity="1" fill-rule="nonzero"/><path fill="#ff914d" d="M 97.152344 431.6875 C 103.085938 435.625 109.226562 426.425781 103.28125 422.480469 C 97.351562 418.542969 91.210938 427.742188 97.152344 431.6875 Z M 97.152344 431.6875 " fill-opacity="1" fill-rule="nonzero"/><path fill="#ff914d" d="M 223.242188 223.421875 C 229.175781 227.359375 235.316406 218.160156 229.371094 214.214844 C 223.4375 210.277344 217.300781 219.476562 223.242188 223.421875 Z M 223.242188 223.421875 " fill-opacity="1" fill-rule="nonzero"/><path fill="#ff914d" d="M 98.980469 166.535156 C 104.914062 170.472656 111.054688 161.273438 105.113281 157.328125 C 99.179688 153.390625 93.039062 162.589844 98.980469 166.535156 Z M 98.980469 166.535156 " fill-opacity="1" fill-rule="nonzero"/><path fill="#ff914d" d="M 573.675781 60.246094 C 579.609375 64.183594 585.75 54.984375 579.808594 51.039062 C 573.875 47.101562 567.734375 56.300781 573.675781 60.246094 Z M 573.675781 60.246094 " fill-opacity="1" fill-rule="nonzero"/><path fill="#ff914d" d="M 342.5 90.992188 C 348.433594 94.933594 354.574219 85.734375 348.632812 81.789062 C 342.699219 77.851562 336.558594 87.046875 342.5 90.992188 Z M 342.5 90.992188 " fill-opacity="1" fill-rule="nonzero"/><path fill="#ff914d" d="M 88.511719 318.914062 C 94.445312 322.851562 100.585938 313.652344 94.640625 309.707031 C 88.710938 305.769531 82.566406 314.96875 88.511719 318.914062 Z M 88.511719 318.914062 " fill-opacity="1" fill-rule="nonzero"/><path fill="#ff914d" d="M 45.109375 259.996094 C 51.042969 263.933594 57.183594 254.734375 51.242188 250.789062 C 45.308594 246.851562 39.167969 256.050781 45.109375 259.996094 Z M 45.109375 259.996094 " fill-opacity="1" fill-rule="nonzero"/><path fill="#ff914d" d="M 694.320312 210.84375 C 700.253906 214.785156 706.394531 205.585938 700.449219 201.640625 C 694.519531 197.699219 688.378906 206.898438 694.320312 210.84375 Z M 694.320312 210.84375 " fill-opacity="1" fill-rule="nonzero"/><path fill="#ff914d" d="M 618.902344 273.421875 C 624.835938 277.363281 630.976562 268.164062 625.035156 264.21875 C 619.101562 260.28125 612.960938 269.476562 618.902344 273.421875 Z M 618.902344 273.421875 " fill-opacity="1" fill-rule="nonzero"/><path fill="#ff914d" d="M 108.96875 620.160156 C 114.902344 624.097656 121.042969 614.898438 115.101562 610.957031 C 109.167969 607.015625 103.027344 616.214844 108.96875 620.160156 Z M 108.96875 620.160156 " fill-opacity="1" fill-rule="nonzero"/><g clip-path="url(#814eaa3cac)"><path fill="#ff914d" d="M 740.890625 549.058594 C 746.824219 552.996094 752.964844 543.800781 747.023438 539.855469 C 741.089844 535.914062 734.949219 545.113281 740.890625 549.058594 Z M 740.890625 549.058594 " fill-opacity="1" fill-rule="nonzero"/></g><path fill="#ff914d" d="M 292.214844 574.78125 C 293.953125 575.058594 295.296875 574.589844 296.230469 573.714844 C 303.605469 570.460938 308.882812 562.777344 308 554.5625 C 307.082031 545.972656 299.34375 540.46875 290.945312 540.609375 C 282.175781 540.757812 272.867188 547.9375 271.871094 556.910156 C 270.5625 568.707031 282.789062 573.277344 292.214844 574.78125 Z M 292.214844 574.78125 " fill-opacity="1" fill-rule="nonzero"/><path fill="#ff914d" d="M 408.832031 175.347656 C 410.570312 175.625 411.910156 175.15625 412.84375 174.28125 C 420.21875 171.027344 425.496094 163.34375 424.613281 155.128906 C 423.695312 146.539062 415.957031 141.035156 407.558594 141.175781 C 398.792969 141.324219 389.480469 148.503906 388.488281 157.476562 C 387.179688 169.273438 399.40625 173.84375 408.832031 175.347656 Z M 408.832031 175.347656 " fill-opacity="1" fill-rule="nonzero"/><path fill="#ff914d" d="M 593.21875 618.28125 C 601.980469 620.179688 610.320312 616.632812 613.617188 609.328125 C 617.074219 605.34375 618.453125 600.050781 616.035156 594.292969 C 612.90625 586.84375 604.707031 581.460938 596.695312 581.070312 C 586.667969 580.585938 577.933594 588.945312 576.9375 598.785156 C 575.9375 608.671875 584.121094 616.316406 593.21875 618.28125 Z M 593.21875 618.28125 " fill-opacity="1" fill-rule="nonzero"/><path fill="#ff914d" d="M 679.574219 541.585938 C 688.335938 543.480469 696.675781 539.933594 699.972656 532.628906 C 703.429688 528.644531 704.808594 523.347656 702.390625 517.59375 C 699.261719 510.144531 691.0625 504.761719 683.050781 504.371094 C 673.023438 503.886719 664.289062 512.246094 663.292969 522.082031 C 662.292969 531.972656 670.476562 539.617188 679.574219 541.585938 Z M 679.574219 541.585938 " fill-opacity="1" fill-rule="nonzero"/><path fill="#ff914d" d="M 309.941406 401.710938 C 322.996094 417.460938 346.382812 408.683594 353.085938 391.625 C 356.835938 382.078125 353.628906 372.039062 344.902344 366.59375 C 334.800781 359.960938 321.511719 355.664062 311.945312 365.664062 C 303.347656 374.648438 301.8125 391.902344 309.941406 401.710938 Z M 309.941406 401.710938 " fill-opacity="1" fill-rule="nonzero"/><path fill="#ff914d" d="M 294.972656 184.78125 C 308.03125 200.535156 331.417969 191.753906 338.121094 174.695312 C 341.871094 165.148438 338.664062 155.113281 329.941406 149.664062 C 319.832031 143.03125 306.542969 138.734375 296.980469 148.734375 C 288.382812 157.71875 286.847656 174.976562 294.972656 184.78125 Z M 294.972656 184.78125 " fill-opacity="1" fill-rule="nonzero"/><path fill="#ff914d" d="M 250.835938 385.925781 C 255.988281 388.777344 261.492188 387.503906 264.769531 383.511719 C 265.085938 383.5 265.410156 383.480469 265.738281 383.453125 C 267.730469 383.285156 269.226562 381.457031 269.90625 379.761719 C 272.699219 372.820312 269.195312 365.394531 262.269531 362.746094 C 255.367188 360.109375 247.304688 363.226562 244.507812 370.199219 C 242.101562 376.203125 245.386719 382.90625 250.835938 385.925781 Z M 250.835938 385.925781 " fill-opacity="1" fill-rule="nonzero"/><path fill="#ff914d" d="M 263.792969 490.023438 C 257.574219 486.214844 249.921875 487.519531 245.957031 493.871094 C 242.222656 499.851562 243.570312 507.839844 249.585938 511.753906 C 255.730469 515.753906 263.519531 513.453125 267.441406 507.550781 C 271.351562 501.660156 270.027344 493.695312 263.792969 490.023438 Z M 263.792969 490.023438 " fill-opacity="1" fill-rule="nonzero"/><path fill="#ff914d" d="M 604.355469 436.640625 C 598.140625 432.832031 590.484375 434.140625 586.519531 440.488281 C 582.785156 446.46875 584.136719 454.453125 590.152344 458.371094 C 596.296875 462.371094 604.085938 460.070312 608.003906 454.167969 C 611.917969 448.277344 610.589844 440.3125 604.355469 436.640625 Z M 604.355469 436.640625 " fill-opacity="1" fill-rule="nonzero"/><path fill="#ff914d" d="M 312.632812 529.035156 C 318.566406 532.972656 324.707031 523.777344 318.765625 519.832031 C 312.832031 515.890625 306.691406 525.089844 312.632812 529.035156 Z M 312.632812 529.035156 " fill-opacity="1" fill-rule="nonzero"/><path fill="#ff914d" d="M 301.734375 275.964844 C 307.667969 279.90625 313.808594 270.707031 307.867188 266.761719 C 301.933594 262.824219 295.792969 272.019531 301.734375 275.964844 Z M 301.734375 275.964844 " fill-opacity="1" fill-rule="nonzero"/><path fill="#ff914d" d="M 307.335938 632.554688 C 313.269531 636.492188 319.410156 627.292969 313.46875 623.347656 C 307.535156 619.410156 301.394531 628.609375 307.335938 632.554688 Z M 307.335938 632.554688 " fill-opacity="1" fill-rule="nonzero"/><path fill="#ff914d" d="M 199.476562 567.34375 C 205.410156 571.28125 211.550781 562.082031 205.609375 558.136719 C 199.675781 554.199219 193.535156 563.398438 199.476562 567.34375 Z M 199.476562 567.34375 " fill-opacity="1" fill-rule="nonzero"/><path fill="#ff914d" d="M 150.097656 319.265625 C 156.03125 323.207031 162.171875 314.007812 156.230469 310.0625 C 150.296875 306.125 144.15625 315.320312 150.097656 319.265625 Z M 150.097656 319.265625 " fill-opacity="1" fill-rule="nonzero"/><path fill="#ff914d" d="M 440.859375 310.859375 C 446.789062 314.796875 452.929688 305.601562 446.988281 301.65625 C 441.054688 297.71875 434.914062 306.914062 440.859375 310.859375 Z M 440.859375 310.859375 " fill-opacity="1" fill-rule="nonzero"/><path fill="#ff914d" d="M 489.492188 533.046875 C 490.457031 538.976562 495.636719 542.1875 501.023438 543.542969 C 501.582031 543.765625 502.175781 543.898438 502.792969 543.917969 C 503.660156 544.042969 504.53125 543.859375 505.320312 543.453125 C 510.699219 541.675781 514.222656 536.519531 512.847656 530.691406 C 511.417969 524.648438 506.015625 520.542969 499.792969 521.15625 C 493.757812 521.75 488.445312 526.636719 489.492188 533.046875 Z M 489.492188 533.046875 " fill-opacity="1" fill-rule="nonzero"/><path fill="#ff914d" d="M 425.765625 404.277344 C 428.03125 409.960938 433.800781 412.75 439.558594 413.53125 C 440.136719 413.699219 440.773438 413.765625 441.472656 413.699219 C 442.375 413.691406 443.164062 413.480469 443.832031 413.128906 C 448.949219 411.347656 452.160156 406.820312 451.75 401.167969 C 451.359375 395.828125 448.039062 390.902344 443.207031 388.574219 C 438.53125 386.320312 432.234375 386.96875 428.457031 390.710938 C 424.820312 394.308594 423.890625 399.570312 425.765625 404.277344 Z M 425.765625 404.277344 " fill-opacity="1" fill-rule="nonzero"/><path fill="#ff914d" d="M 371.976562 314.214844 C 377.910156 318.15625 384.050781 308.957031 378.109375 305.011719 C 372.175781 301.074219 366.03125 310.273438 371.976562 314.214844 Z M 371.976562 314.214844 " fill-opacity="1" fill-rule="nonzero"/><path fill="#ff914d" d="M 524.347656 484.507812 C 530.28125 488.445312 536.421875 479.25 530.480469 475.304688 C 524.546875 471.363281 518.40625 480.5625 524.347656 484.507812 Z M 524.347656 484.507812 " fill-opacity="1" fill-rule="nonzero"/><path fill="#ff914d" d="M 595.097656 549.316406 C 596.359375 550.074219 597.789062 550.429688 599.257812 550.132812 L 601.835938 549.617188 C 603.226562 549.335938 604.566406 548.4375 605.355469 547.257812 C 606.105469 546.128906 606.503906 544.445312 606.171875 543.105469 C 605.828125 541.714844 605.074219 540.355469 603.808594 539.59375 C 602.550781 538.839844 601.121094 538.484375 599.652344 538.777344 C 598.792969 538.953125 597.929688 539.125 597.070312 539.296875 C 595.679688 539.578125 594.339844 540.472656 593.554688 541.652344 C 592.804688 542.785156 592.40625 544.464844 592.738281 545.804688 C 593.078125 547.191406 593.832031 548.558594 595.097656 549.316406 Z M 595.097656 549.316406 " fill-opacity="1" fill-rule="nonzero"/><path fill="#ff914d" d="M 527.574219 597.03125 C 533.507812 600.96875 539.648438 591.769531 533.707031 587.824219 C 527.773438 583.886719 521.632812 593.085938 527.574219 597.03125 Z M 527.574219 597.03125 " fill-opacity="1" fill-rule="nonzero"/><path fill="#ff914d" d="M 444.171875 516.011719 C 450.101562 519.953125 456.242188 510.753906 450.300781 506.808594 C 444.367188 502.871094 438.226562 512.066406 444.171875 516.011719 Z M 444.171875 516.011719 " fill-opacity="1" fill-rule="nonzero"/><path fill="#ff914d" d="M 666.375 632.554688 C 672.304688 636.492188 678.445312 627.292969 672.503906 623.347656 C 666.570312 619.410156 660.429688 628.609375 666.375 632.554688 Z M 666.375 632.554688 " fill-opacity="1" fill-rule="nonzero"/><path fill="#ff914d" d="M 573.675781 674.773438 C 579.609375 678.714844 585.75 669.515625 579.808594 665.570312 C 573.875 661.632812 567.734375 670.828125 573.675781 674.773438 Z M 573.675781 674.773438 " fill-opacity="1" fill-rule="nonzero"/><path fill="#ff914d" d="M 144.121094 65.804688 C 150.054688 69.746094 156.195312 60.546875 150.253906 56.601562 C 144.320312 52.664062 138.179688 61.859375 144.121094 65.804688 Z M 144.121094 65.804688 " fill-opacity="1" fill-rule="nonzero"/><path fill="#ff914d" d="M 408.574219 655.988281 C 401.808594 660.917969 400.523438 669.984375 404.546875 677.101562 C 408.378906 683.882812 415.582031 689.054688 423.660156 687.320312 C 429.992188 685.960938 435.160156 680.894531 437.625 675.058594 C 440.476562 668.316406 438.597656 661.628906 432.664062 657.949219 C 432.582031 657.875 432.5 657.792969 432.410156 657.722656 C 425.6875 652.1875 415.902344 650.648438 408.574219 655.988281 Z M 408.574219 655.988281 " fill-opacity="1" fill-rule="nonzero"/><path fill="#ff914d" d="M 368.769531 485.738281 C 362.003906 490.667969 360.71875 499.734375 364.742188 506.851562 C 368.574219 513.632812 375.777344 518.804688 383.855469 517.070312 C 390.1875 515.714844 395.355469 510.644531 397.820312 504.808594 C 400.671875 498.066406 398.792969 491.382812 392.859375 487.699219 C 392.777344 487.625 392.699219 487.542969 392.605469 487.472656 C 385.882812 481.9375 376.097656 480.398438 368.769531 485.738281 Z M 368.769531 485.738281 " fill-opacity="1" fill-rule="nonzero"/><path fill="#ff914d" d="M 390.132812 634.007812 C 396.066406 637.945312 402.207031 628.746094 396.265625 624.800781 C 390.332031 620.863281 384.191406 630.0625 390.132812 634.007812 Z M 390.132812 634.007812 " fill-opacity="1" fill-rule="nonzero"/><path fill="#ff914d" d="M 448.839844 605.097656 C 454.769531 609.035156 460.910156 599.839844 454.96875 595.890625 C 449.039062 591.953125 442.894531 601.152344 448.839844 605.097656 Z M 448.839844 605.097656 " fill-opacity="1" fill-rule="nonzero"/><path fill="#ff914d" d="M 513.308594 421.234375 C 519.242188 425.171875 525.382812 415.976562 519.441406 412.03125 C 513.507812 408.09375 507.367188 417.289062 513.308594 421.234375 Z M 513.308594 421.234375 " fill-opacity="1" fill-rule="nonzero"/><path fill="#ff914d" d="M 497.761719 692.078125 C 503.695312 696.019531 509.835938 686.820312 503.890625 682.875 C 497.957031 678.9375 491.816406 688.132812 497.761719 692.078125 Z M 497.761719 692.078125 " fill-opacity="1" fill-rule="nonzero"/><path fill="#ff914d" d="M 328.285156 689.75 C 328.777344 694.042969 331.667969 698.148438 335.691406 699.804688 C 336.964844 700.332031 338.371094 700.480469 339.734375 700.296875 C 342.976562 700.972656 346.296875 700.449219 348.757812 698.007812 C 351.363281 695.417969 352.203125 691.773438 351.828125 688.210938 C 351.070312 681.0625 344.710938 676.480469 337.6875 677.753906 C 331.730469 678.835938 327.589844 683.636719 328.285156 689.75 Z M 328.285156 689.75 " fill-opacity="1" fill-rule="nonzero"/><path fill="#ff914d" d="M 225.082031 667.683594 C 217.382812 661.929688 205.335938 662.878906 200.332031 671.578125 C 195.054688 680.761719 200.152344 691.761719 208.875 696.523438 C 215.992188 701.371094 224.214844 696.417969 228.070312 689.914062 C 232.367188 682.671875 232.277344 673.066406 225.082031 667.683594 Z M 225.082031 667.683594 " fill-opacity="1" fill-rule="nonzero"/><g clip-path="url(#d85fbfe8d3)"><path fill="#ff914d" d="M 280.347656 714.984375 C 286.28125 718.921875 292.421875 709.726562 286.476562 705.78125 C 280.546875 701.839844 274.40625 711.039062 280.347656 714.984375 Z M 280.347656 714.984375 " fill-opacity="1" fill-rule="nonzero"/></g><path fill="#ff914d" d="M 325.695312 252.046875 C 331.628906 255.984375 337.769531 246.785156 331.828125 242.84375 C 325.894531 238.902344 319.753906 248.101562 325.695312 252.046875 Z M 325.695312 252.046875 " fill-opacity="1" fill-rule="nonzero"/><path fill="#ff914d" d="M 166.0625 623.882812 C 164.117188 622.421875 161.679688 621.304688 159.292969 620.785156 C 155.65625 619.992188 151.769531 620.101562 149.125 623.105469 C 145.738281 626.957031 147.363281 632.253906 149.640625 636.222656 C 150.382812 637.515625 151.425781 638.566406 152.882812 639.042969 C 154.148438 639.460938 155.859375 639.402344 157.046875 638.757812 C 157.09375 638.734375 157.136719 638.703125 157.179688 638.679688 C 157.742188 638.929688 158.335938 639.078125 158.9375 639.050781 C 163.324219 638.816406 168.285156 638.03125 170.078125 633.375 C 171.535156 629.585938 168.933594 626.042969 166.0625 623.882812 Z M 166.0625 623.882812 " fill-opacity="1" fill-rule="nonzero"/><path fill="#ff914d" d="M 110.375 258.066406 C 117.164062 258.113281 123.589844 254.757812 125.785156 247.925781 C 127.65625 242.101562 126.050781 235.085938 121.65625 230.78125 C 115.957031 225.203125 107.21875 225.183594 100.695312 229.398438 C 94.433594 233.441406 91.195312 241.242188 92.824219 248.550781 C 94.714844 257.011719 102.597656 261.160156 110.375 258.066406 Z M 110.375 258.066406 " fill-opacity="1" fill-rule="nonzero"/></g></g></g></g></svg>